<svg width="974" height="1000" viewBox="0 0 974 1000" fill="none" xmlns="http://www.w3.org/2000/svg">
<path d="M388.148 361.701C388.902 361.247 411.452 346.389 445.165 346.328C451.212 346.328 457.62 346.82 464.328 347.977L464.576 348.028L464.82 348.089C464.844 348.07 469.79 349.274 478.264 350.525C486.728 351.761 498.5 353.007 511.513 353.007C531.96 353.036 555.344 349.841 573.697 339.54L581.683 353.851C559.461 366.208 533.552 369.365 511.513 369.393C485.08 369.384 463.996 364.713 461.312 364.104C455.981 363.188 450.583 362.729 445.174 362.732C420.052 362.695 401.559 372.742 397.84 374.991C397.306 375.314 397.174 375.403 397.174 375.403L388.148 361.701ZM498.982 444.243C496.149 436.823 495.577 428.719 495.554 421.449C495.554 418.273 495.689 415.266 495.872 412.619C478.4 414.957 455.859 422.405 437.061 429.933C423.519 435.308 410.2 441.229 397.137 447.681L389.736 433.052C389.886 432.982 407.803 423.923 431.004 414.704C454.304 405.513 482.456 396.014 504.927 395.48L514.754 395.288L513.171 404.989C513.19 404.998 512.885 406.769 512.576 409.804C512.258 412.849 511.944 417.041 511.953 421.449C511.916 427.623 512.656 434.298 514.267 438.303C516.272 442.505 516.684 442.627 518.914 442.828C519.443 442.828 520.104 442.767 520.928 442.599C522.044 442.185 523.13 441.695 524.179 441.133C526.943 439.676 531.473 436.87 537.74 431.713C550.275 421.398 569.762 401.64 595.984 364.592L609.367 374.073C555.672 449.799 527.978 457.682 524.896 458.507C522.939 458.976 520.935 459.218 518.923 459.228L518.539 459.233C508.403 459.233 501.376 451.396 498.982 444.243ZM457.93 487.549C450.603 482.078 442.57 480.289 434.752 480.27C424.573 480.242 415.148 483.558 411.373 485.16C410.108 485.689 409.616 485.942 409.616 485.942L409.316 486.092L341.141 514.306L334.864 499.157L402.575 471.145C404.908 470.044 417.991 463.94 434.752 463.88C445.076 463.861 457.049 466.386 467.771 474.433C478.512 482.476 487.497 495.7 492.996 515.43L477.187 519.833C472.357 502.609 465.251 493.053 457.93 487.549Z" fill="#E6E6E6"/>
<path d="M390.316 524.297C390.326 524.288 396.781 524.297 407.409 523.824C421.265 523.193 435.094 522.066 448.87 520.447C481.093 516.704 519.312 508.685 541.187 494.402C541.187 494.393 542.265 493.704 544.134 492.351C545.989 491.006 548.532 489.071 551.217 486.809C556.58 482.378 559.962 478.499 562.885 473.707L563.934 472.222L564.211 471.594L564.557 471.051C564.684 470.878 575.547 454.075 590.742 436.06C606.205 418.114 624.914 398.604 645.281 393.362L658.065 404.75C648.87 406.741 627.116 420.405 614.707 433.924C602.804 446.267 591.998 460.469 585.337 469.782C583.016 473.015 580.753 476.29 578.549 479.605C568.071 497.297 550.57 507.513 550.125 508.151C523.65 525.079 484.18 532.673 450.818 536.725C417.518 540.697 390.527 540.683 390.326 540.697V524.297H390.316Z" fill="#E6E6E6"/>
<path d="M575.317 506.029C563.953 506.029 557.011 503.795 556.35 503.584L561.536 488.032C561.536 488.014 561.573 488.051 562.112 488.187C562.66 488.332 563.55 488.543 564.74 488.758C567.119 489.185 570.722 489.639 575.317 489.639C601.61 488.506 619.743 477.75 643.852 459.739L642.71 481.292C615.901 501.434 591.412 506.034 575.518 506.034L575.317 506.029ZM131.805 646.871L131.983 630.476H132.466C136.377 630.678 167.34 629.333 184.208 613.824L184.41 613.646L297.034 525.268L307.152 538.164L194.931 626.233C171.312 646.679 137.876 646.679 132.466 646.876L131.805 646.871Z" fill="#E6E6E6"/>
<path d="M271.762 557.453L284.026 546.581C284.026 546.571 284.326 546.923 285.084 547.709C289.998 552.736 295.35 557.315 301.076 561.392C311.63 568.92 325.856 576.012 340.012 575.937C340.874 575.937 341.778 575.899 342.72 575.848C343.549 575.75 348.355 575.211 354.027 574.19C360.169 573.159 365.911 571.14 369.996 569.796L371.757 569.248L372.301 569.046C372.835 568.882 393.357 561.022 420.755 560.994H538.93C538.93 560.994 539.122 561.003 539.773 561.003C549.418 560.671 641.033 558.404 702.167 425.258L717.073 432.064C653.517 571.721 552.94 577.722 539.773 577.398C538.92 577.398 538.438 577.375 538.639 577.375H420.76C402.674 577.366 386.653 581.553 380.021 583.61C378.62 584.036 377.692 584.35 377.196 584.523C369.106 587.451 363.621 589.062 356.922 590.332C352.747 591.076 348.55 591.687 344.336 592.163L344.073 592.187L343.961 592.196C342.663 592.28 341.352 592.327 340.007 592.327C301.222 591.76 272.634 557.991 271.762 557.453ZM271.753 557.448L271.762 557.453L271.753 557.457V557.448ZM2.10742 588.509V547.742L2.13084 547.433C2.19174 546.913 2.6789 540.964 5.63 533.619C8.5483 526.373 14.2725 517.196 25.3508 512.423L147.423 462.54C148.163 462.268 153.794 460.329 163.349 460.329C182.307 460.249 216.211 468.25 256.248 509.612H256.257L244.486 521.033C206.702 482.242 177.782 476.79 163.349 476.724C157.419 476.724 153.873 477.698 153.119 477.918L31.6792 527.539C22.2123 531.066 18.8022 544.899 18.5305 548.295C18.5152 548.39 18.5012 548.485 18.4883 548.581L18.4977 588.514L2.10742 588.509ZM301.779 480.195C301.006 480.218 300.21 480.232 299.381 480.232C265.982 480.125 242.528 457.593 227.758 436.627C214.3 417.501 207.297 398.801 205.953 395.072C202.271 388.205 196.374 386.688 189.179 386.491C185.301 386.534 181.447 387.092 177.716 388.149C177.107 388.327 176.934 388.388 176.934 388.388L176.465 388.547L153.695 393.344L150.304 377.3L172.175 372.7C177.684 371.003 183.413 370.124 189.179 370.091C199.17 369.885 213.626 373.581 220.811 388.098L221.06 388.608L221.242 389.128C221.242 389.128 221.589 390.159 222.399 392.22C223.21 394.285 224.442 397.279 226.109 400.876C229.431 408.062 234.466 417.688 241.165 427.178C254.702 446.351 274.193 463.955 299.385 463.838C300.074 463.838 300.828 463.828 301.634 463.795L302.004 463.777L302.454 463.809C302.454 463.8 302.964 463.856 304.393 463.856C311.663 463.856 338.003 462.395 367.106 443.456L376.048 457.205C343.399 478.424 313.752 480.247 304.393 480.247C303.521 480.247 302.65 480.229 301.779 480.195Z" fill="#E6E6E6"/>
<path d="M165.298 439.756L166.811 423.422C169.701 423.689 173.603 423.83 177.936 423.83C198.289 423.83 227.898 421.094 227.945 421.085L229.472 437.409C229.341 437.419 199.549 440.22 177.936 440.229C173.275 440.229 168.993 440.098 165.298 439.756ZM76.5446 432.725L76.1043 432.079C75.7155 431.362 66.6186 418.18 66.5062 399.368C66.4764 391.184 68.3833 383.109 72.0711 375.802L86.7188 383.152C84.183 388.179 82.8762 393.737 82.9058 399.368C82.8356 410.353 87.8712 419.914 89.3467 422.335L134.957 467.946H134.967L123.359 479.54L76.5446 432.725Z" fill="#E6E6E6"/>
<path d="M68.4885 376.555C59.682 366.001 53.3629 352.74 53.377 337.333C53.3676 328.677 55.3491 319.482 59.6211 309.968L74.578 316.657C71.1491 324.349 69.7813 331.16 69.7813 337.333C69.7298 353.485 79.5199 366.882 93.4135 377.895C107.181 388.8 124.377 396.5 135.806 400.768C143.423 403.63 148.28 404.932 148.294 404.942L143.999 420.765C143.404 420.39 95.0389 408.005 68.4885 376.555Z" fill="#E6E6E6"/>
<path d="M200.95 347.714C196.687 346.918 194.331 346.632 194.322 346.632L194.144 346.604L193.97 346.576C192.177 346.291 190.362 346.161 188.546 346.187C181.356 346.159 172.427 348.005 165.528 349.939C158.599 351.864 153.836 353.733 153.817 353.743L153.489 353.865L153.147 353.968C148.734 355.26 144.2 355.79 139.727 355.79C113.977 355.509 88.237 339.638 83.8197 336.987C64.7969 327.38 57.5644 315.271 57.6628 304.937C57.7565 296.328 61.9723 291.287 62.5485 290.519L62.7874 290.229L63.0637 289.952C92.7901 261.205 148.196 261.575 157.344 261.196C158.14 261.196 158.581 261.205 158.646 261.205L158.253 277.595C158.243 277.595 157.991 277.586 157.344 277.586C149.704 277.206 96.5048 279.52 75.1632 301.021C74.4453 302.2 74.0646 303.553 74.0624 304.933C74.1608 307.565 75.0695 313.744 91.3614 322.433L91.6706 322.588L92.0219 322.808C92.0219 322.798 93.5162 323.763 96.3408 325.347C99.1607 326.93 103.199 329.057 107.925 331.174C117.345 335.427 129.623 339.46 139.727 339.4C142.851 339.4 145.769 339.029 148.364 338.285C151.756 337.034 170.797 329.895 188.551 329.783C191.263 329.783 193.984 329.956 196.692 330.406V330.415C200.931 331.052 245.75 338.453 276.142 361.331L262.398 372.545C242.368 357.214 213.729 350.056 200.95 347.714ZM156.688 192.693C156.688 192.693 153.761 227.825 116.872 224.897C116.872 224.897 92.2795 253.588 67.1016 241.292C67.1016 241.292 24.9431 262.371 4.44943 224.312C4.44943 224.312 -11.36 192.693 20.2588 176.883C20.2588 176.883 30.7985 137.653 85.8387 142.337C85.8387 142.337 71.7671 139.053 70.0292 125.942C70.0292 125.942 18.5022 117.744 20.2588 74.4149C20.2588 74.4149 -12.8309 45.8127 11.4758 14.6904C11.4758 14.6904 34.1711 -13.9727 71.2003 11.7627C71.2003 11.7627 122.727 9.4206 130.925 49.2369C130.925 49.2369 152.59 53.3357 154.346 70.3161C154.346 70.3161 156.365 20.9954 197.676 18.7891C197.676 18.7891 228.123 -14.0008 257.986 7.07846C257.986 7.07846 289.843 30.7715 265.598 64.4608C265.598 64.4608 273.21 100.764 239.249 114.231C239.249 114.231 229.754 148.501 190.724 140.838C190.724 140.838 223.669 132.289 223.481 103.2C223.481 103.2 254.501 93.4424 246.481 62.0812C246.481 62.0812 262.164 43.6111 251.709 27.2302C251.709 27.2302 234.194 2.57218 213.373 32.1112C213.373 32.1112 173.645 30.0173 170.858 74.9723C170.858 74.9723 155.527 85.7742 155.873 103.551C155.873 103.551 145.067 63.8237 119.28 63.8237C119.28 63.8237 110.216 19.5667 64.914 28.6261C64.914 28.6261 41.3802 10.1794 27.2806 27.5815C27.2806 27.5815 13.1153 45.8127 34.9487 63.8237C34.9487 63.8237 36.6913 108.081 78.5125 109.823C78.5125 109.823 89.661 138.051 118.933 138.051V142.58C118.933 142.58 92.7995 142.927 88.9678 156.867C88.9678 156.867 42.9729 148.853 35.6514 184.397C35.6514 184.397 12.9982 196.243 22.7556 217.154C22.7556 217.154 35.6748 241.32 61.7849 221.684C61.7849 221.684 88.9631 241.198 106.389 211.926C106.384 211.931 135.197 218.409 156.688 192.693Z" fill="#E6E6E6"/>
<path d="M63.8689 55.111C63.8689 55.111 110.22 76.7148 123.111 96.2295L117.888 106.338C117.888 106.338 57.592 61.7345 63.8689 55.111ZM60.7305 196.946C60.7305 196.946 96.6307 168.021 129.73 167.323L133.913 178.125C133.913 178.125 68.3986 202.872 60.7305 196.946ZM184.447 119.581C184.447 119.581 217.907 78.1061 223.481 55.4576C223.481 55.4576 214.07 47.0915 176.432 109.125L184.447 119.581ZM159.836 137.582C159.836 137.582 196.298 177.431 202.917 198.342L189.332 217.163C189.332 217.163 168.764 172.56 152.388 146.768C152.388 146.768 148.931 141.391 152.041 138.402C152.041 138.397 156.177 134.36 159.836 137.582ZM455.001 265.266H528.09L532.31 280.949H450.785L455.001 265.266ZM756.706 133.957C756.706 133.957 817.85 48.9231 831.195 22.218H850.171C850.171 22.218 808.828 100.769 839.631 106.549C839.631 106.549 877.583 110.765 949.262 76.3307V96.0094C949.262 96.0094 806.593 166.99 810.116 89.6856L769.358 148.721L756.706 133.957ZM803.089 191.583L971.044 118.494V138.875L895.154 168.391C895.154 168.391 876.169 176.822 897.257 176.822C897.257 176.822 930.286 176.822 949.262 170.499V184.551C949.262 184.551 910.608 195.091 869.142 192.281C869.142 192.281 825.803 192.103 815.732 208.446L803.089 191.583ZM192.405 307.457C192.405 307.457 218.169 247.733 230.465 234.851C230.465 234.851 286.676 172.785 294.874 140.58C294.874 140.58 300.345 93.9951 321.424 86.3832C321.424 86.3832 344.176 74.6257 371.579 91.3954L396.171 93.152L382.704 108.376L399.684 123.6C399.684 123.6 368.066 132.383 364.552 162.831C364.552 162.831 386.217 135.896 427.205 127.113L400.27 106.034L420.764 77.9281L384.461 79.0991C384.461 79.0991 354.598 61.5331 326.493 66.2174C326.493 66.2174 286.676 73.2438 280.821 121.843C280.821 121.843 275.551 157.561 256.814 175.127C256.814 175.127 191.82 242.463 173.083 307.457H192.405Z" fill="#E6E6E6"/>
<path d="M356.969 118.518C352.927 123.887 343.108 126.749 337.923 122.837C332.737 118.935 334.138 109.74 338.19 104.367C342.232 98.9991 349.718 97.814 354.903 101.721C360.089 105.627 361.012 113.15 356.969 118.518ZM514.066 49.8892C520.624 46.8585 534.423 48.8352 537.585 55.7305C540.771 62.6211 532.142 71.8256 525.584 74.8517C519.026 77.8777 511.119 74.744 507.943 67.844C504.767 60.9441 507.508 52.9012 514.066 49.8892ZM397.085 224.303C393.282 229.362 384.03 232.056 379.144 228.369C374.263 224.692 375.584 216.031 379.393 210.972C383.206 205.918 390.256 204.798 395.141 208.48C400.032 212.162 400.903 219.244 397.085 224.303Z" fill="#E6E6E6"/>
<path d="M268.525 329.708L286.091 340.247L328.25 278.766C328.25 278.766 337.618 265.885 337.618 246.562C337.618 246.562 336.855 216.339 346.401 206.746C346.401 206.746 362.211 186.252 396.172 191.522C396.172 191.522 413.738 196.206 426.034 189.18L416.08 207.331L434.817 216.114C434.817 216.114 383.29 255.931 403.784 332.05H407.883C407.883 332.05 403.198 244.805 464.094 214.358L435.403 201.476L446.528 170.443C446.528 170.443 421.785 181.193 404.955 178.64C404.955 178.64 360.454 168.1 341.717 184.495C341.717 184.495 319.401 199.143 320.052 239.536C320.052 239.536 319.645 259.809 310.098 272.325L268.525 329.708ZM872.97 432.977C821.003 389.17 736.414 290.084 736.414 290.084C729.2 282.907 734.301 298.843 734.301 298.843C761.793 366.512 871.452 440.229 871.452 440.229C871.452 440.229 876.605 443.742 879.017 441.84C879.017 441.84 881.856 440.144 872.97 432.977Z" fill="#E6E6E6"/>
<path d="M648.728 355.28C648.728 355.28 558.95 281.891 558.95 174.153C558.95 174.153 563.634 92.9604 480.882 117.159L493.37 94.5202H467.606L478.422 76.3312C478.422 76.3312 483.214 66.5223 486.343 57.8283C486.343 57.8283 497.277 21.1317 532.409 19.5719C532.409 19.5719 569.93 14.5456 594.377 43.0916C594.377 43.0916 619.218 71.0989 629.218 82.0273C629.218 82.0273 654.818 106.723 671.377 121.061C671.377 121.061 777.551 212.405 836.104 324.827C836.104 324.827 922.178 490.224 939.158 525.469C939.158 525.469 963.596 565.196 916.524 530.931C916.524 530.931 695.576 396.646 607.362 180.392C607.362 180.392 598.241 162.414 601.956 187.175C601.956 187.175 612.824 276.42 715.292 383.573C715.292 383.573 828.3 503.022 913.788 551.621C913.788 551.621 958.874 582.654 969.999 575.042C969.999 575.042 983.209 573.262 955.947 514.147C955.947 514.147 871.044 326.19 790.826 221.965C790.826 221.965 741.121 154.896 702.41 121.839C702.41 121.839 643.196 68.0447 630.975 52.7459C630.975 52.7459 585.744 -1.85399 537.29 0.0478213C537.29 0.0478213 485.177 -1.12325 470.539 50.9893C470.539 50.9893 463.222 77.1931 436.578 107.201H469.953L452.387 135.892C452.387 135.892 516.796 118.326 532.02 142.333C532.02 142.333 541.974 159.313 541.388 185.077C541.388 185.077 538.461 290.473 646.199 360.737L648.728 355.28ZM573.396 742.51H177.655C174.837 742.51 172.135 743.629 170.142 745.621C168.15 747.614 167.031 750.316 167.031 753.134V910.193C167.031 914.146 164.979 914.146 164.979 914.146C162.562 914.146 161.686 911.729 161.686 911.729C161.662 911.713 161.637 911.699 161.611 911.687L70.4971 753.227C63.4379 741.465 52.3502 742.51 52.3502 742.51H13.705C10.8873 742.51 8.18511 743.629 6.19273 745.621C4.20036 747.614 3.08105 750.316 3.08105 753.134V985.624C3.08105 988.441 4.20036 991.143 6.19273 993.136C8.18511 995.128 10.8873 996.247 13.705 996.247H40.8644C43.682 996.247 46.3843 995.128 48.3767 993.136C50.369 991.143 51.4883 988.441 51.4883 985.624V823.121C51.4883 823.121 51.3525 820.77 53.362 820.77C53.362 820.77 55.3201 820.803 57.0579 824.133L149.132 986.757C149.132 986.757 154.472 996.168 164.923 996.168H176.835C177.111 996.191 177.374 996.252 177.655 996.252H204.814C206.209 996.252 207.591 995.977 208.88 995.443C210.169 994.91 211.34 994.127 212.326 993.141C213.313 992.154 214.095 990.983 214.629 989.694C215.163 988.405 215.438 987.023 215.438 985.628V782.326H573.396C576.213 782.325 578.915 781.205 580.907 779.213C582.899 777.221 584.019 774.519 584.02 771.702V753.129C584.017 750.313 582.897 747.612 580.905 745.621C578.913 743.63 576.212 742.511 573.396 742.51ZM769.742 985.005C769.741 987.822 768.621 990.524 766.629 992.516C764.637 994.508 761.935 995.628 759.118 995.629H731.176C728.359 995.628 725.658 994.508 723.665 992.516C721.673 990.524 720.554 987.822 720.552 985.005V752.726C720.554 749.909 721.673 747.207 723.665 745.215C725.658 743.223 728.359 742.104 731.176 742.102H759.118C761.935 742.104 764.637 743.223 766.629 745.215C768.621 747.207 769.741 749.909 769.742 752.726V985.005ZM699.197 995.044C685.959 998.309 672.941 997.732 672.941 997.732C612.585 997.732 615.559 940.809 615.559 940.809V752.726C615.56 749.909 616.68 747.207 618.672 745.215C620.664 743.223 623.366 742.104 626.183 742.102H654.125C656.942 742.104 659.644 743.223 661.636 745.215C663.628 747.207 664.747 749.909 664.749 752.726V927.927C664.365 960.211 687.308 962.333 699.506 961.19C699.506 961.19 706.907 959.527 706.907 966.502V985.155C706.898 985.155 707.629 993.268 699.197 995.044Z" fill="#E6E6E6"/>
<path d="M409.095 918.031H283.941C285.341 949.944 300.753 962.058 328.427 962.058C346.26 962.058 360.234 951.72 366.211 941.963C368.445 938.323 372.019 938.304 372.019 938.304H405.011C405.011 938.304 412.276 937.686 409.465 943.986C394.738 983.179 365.817 1000 326.675 1000C269.574 1000 234.194 960.283 234.194 903.547C234.194 848.586 271.673 806.742 326.675 806.742C385.36 806.742 416.759 850.249 416.759 909.908C416.763 909.913 417.279 918.031 409.095 918.031ZM368.459 883.69C363.906 858.166 349.446 844.684 325.275 844.684C293.75 844.684 284.639 869.506 283.941 883.69H368.459ZM964.177 918.031H839.027C840.428 949.944 855.844 962.058 883.518 962.058C901.342 962.058 915.32 951.72 921.302 941.963C923.536 938.323 927.101 938.304 927.101 938.304H960.092C960.092 938.304 967.367 937.686 964.547 943.986C949.824 983.179 920.908 1000 881.757 1000C824.661 1000 789.28 960.283 789.28 903.547C789.28 848.586 826.764 806.742 881.757 806.742C940.446 806.742 971.845 850.249 971.845 909.908C971.855 909.913 972.365 918.031 964.177 918.031ZM923.546 883.69C918.988 858.166 904.532 844.684 880.361 844.684C848.836 844.684 839.721 869.506 839.027 883.69H923.546ZM474.202 941.738C477.678 958.484 494.138 963.801 511.732 963.801C526.792 963.801 542.611 960.344 542.611 942.824C542.611 927.76 523.635 925.563 487.908 917.862C459.184 911.552 430.456 898.338 430.456 866.457C430.456 820.218 470.389 808.306 509.282 808.306C546.373 808.306 580.699 819.998 588.044 858.095L588.18 858.667C589.861 866.719 581.191 866.4 581.191 866.4L550.101 867.557C542.288 867.96 540.77 861.463 540.77 861.463C536.835 847.406 523.57 843.344 507.873 843.344C496.663 843.344 480.207 845.443 480.207 860.161C480.207 878.022 508.229 880.477 536.601 887.133C565.676 893.789 592.503 904.615 592.503 938.243C592.503 985.887 552.715 999.223 511.381 999.223C471.499 999.223 432.568 985.039 426.881 942.609C426.881 942.609 425.411 935.47 433.842 935.47H464.482C473.602 935.47 474.202 941.738 474.202 941.738ZM967.208 775.624V742.857C967.208 739.803 964.781 737.56 961.83 737.869L804.214 754.221C801.258 754.526 798.836 757.276 798.836 760.334V776.242C798.836 779.292 801.272 781.802 804.242 781.812H960.945C960.94 781.807 967.208 782.88 967.208 775.624ZM707.797 840.759C707.796 843.049 706.885 845.245 705.266 846.864C703.646 848.482 701.45 849.392 699.16 849.392H603.984C602.851 849.392 601.729 849.169 600.681 848.735C599.634 848.301 598.683 847.665 597.882 846.863C597.08 846.061 596.445 845.11 596.011 844.062C595.578 843.015 595.355 841.892 595.356 840.759V822.298C595.356 817.529 599.216 813.665 603.984 813.665H699.16C703.928 813.665 707.797 817.529 707.797 822.298V840.759ZM929.958 629.002L895.449 536.375L874.014 518.935L910.701 625.01C910.701 625.01 919.784 645.715 907.071 645.715H893.997C893.997 645.715 884.657 646.563 882.001 638.45L854.766 559.983C851.722 552.142 850.298 557.416 850.298 557.416C850.148 558.99 849.965 559.829 851.127 566.518L866.753 640.263C866.753 640.263 868.482 649.706 859.844 656.606L850.401 664.963C850.401 664.963 841.107 672.317 838.048 662.419L801.726 505.126C801.726 505.126 797.726 490.23 794.817 497.861L820.145 652.821C822.754 673.184 824.586 682.224 825.583 686.084L825.691 686.768C825.691 686.768 828.858 700.816 843.693 696.043C847.935 694.917 851.855 692.812 855.136 689.897C855.254 689.808 855.361 689.757 855.478 689.668L880.905 664.597L927.045 662.78C927.049 662.784 943.768 664.232 929.958 629.002ZM397.141 392.085C353.245 414.443 326.193 420.036 310.772 419.994C302.762 419.985 297.9 418.556 295.066 417.268C292.166 415.647 291.721 412.935 291.913 410.831C292.555 406.794 295.45 401.824 300.706 396.652C309.7 387.677 324.497 379.138 336.873 373.226C342.07 370.729 347.344 368.397 352.687 366.233C356.72 364.612 359.081 363.792 359.081 363.783L353.61 348.329C353.357 348.428 334.859 354.953 315.916 365.675C306.444 371.043 296.827 377.451 289.164 385.012C281.941 392.207 276.048 400.849 275.472 411.323C275.453 411.431 275.42 411.497 275.401 411.614C275.401 411.614 273.57 426.763 287.609 432.187C292.466 434.407 299.624 436.253 310.112 436.398H310.768C330.067 436.365 359.259 429.723 404.566 406.695L397.141 392.085ZM211.808 565.23C211.672 564.457 212.14 554.508 203.601 542.933C197.015 533.372 184.709 522.837 164.689 518.991L153.264 532.056C166.619 534.721 180.61 541.326 187.225 548.324L187.229 548.334C187.229 548.334 188.358 549.5 189.778 551.664C189.904 551.884 190.059 552.104 190.166 552.325L190.223 552.414C193.597 557.841 195.385 564.104 195.385 570.495L195.389 570.514L194.743 609.435L211.129 605.271V605.262L211.934 565.975L211.808 565.23Z" fill="#E6E6E6"/>
</svg>
