<svg width="908" height="1000" viewBox="0 0 908 1000" fill="none" xmlns="http://www.w3.org/2000/svg">
<path d="M839.244 945.031C763.541 987.785 633.655 1000 454 1000C274.345 1000 144.459 987.785 68.7555 945.031C23.3135 919.434 0.317383 884.546 0.317383 859.524C0.317383 845.269 7.89522 837.128 24.7766 837.128H883.211C900.105 837.128 907.67 845.269 907.67 859.524C907.683 884.546 884.686 919.434 839.244 945.031ZM883.211 281.858H24.7766C7.89522 281.858 0.317383 273.129 0.317383 257.423C0.317383 164.339 140.382 0.00195312 454 0.00195312C764.716 0.00195312 907.683 164.339 907.683 257.423C907.683 273.129 900.105 281.858 883.211 281.858Z" fill="#E6E6E6"/>
<path d="M0.317383 475.868V347.595C0.317383 329.563 11.384 316.171 34.3802 316.171H69.0431C105.732 316.171 129.316 334.802 129.316 369.691C129.316 384.534 123.789 394.712 118.262 401.115C116.811 402.866 115.923 403.441 115.923 404.891C115.923 406.067 117.386 407.217 118.837 408.393C122.326 411.294 137.756 423.211 137.756 449.108C137.756 481.382 114.185 507.28 75.4455 507.28H34.3802C11.384 507.28 0.317383 493.9 0.317383 475.868ZM51.5741 385.984C51.5741 389.786 53.9 392.687 58.8518 392.687H62.6282C75.1579 392.687 78.9469 382.795 78.9469 375.818C78.9469 368.24 75.1454 359.524 62.6282 359.524H58.8518C53.9 359.524 51.5741 362.438 51.5741 366.214V385.984ZM51.5741 456.961C51.5741 460.75 53.9 463.651 58.8518 463.651H64.0913C78.059 463.651 82.1356 452.897 82.1356 445.331C82.1356 436.891 78.0715 427.587 64.0913 427.587H58.8518C53.9 427.587 51.5741 430.501 51.5741 434.277V456.961ZM223.364 508.73C270.544 508.73 295.591 480.507 295.591 445.031V347.02C295.591 329.563 285.399 315.595 266.755 315.595C248.123 315.595 237.931 329.563 237.931 347.02V441.83C237.931 448.808 233.855 456.961 223.364 456.961C212.885 456.961 209.383 448.808 209.383 441.83V347.02C209.383 329.563 198.904 315.595 180.26 315.595C161.615 315.595 151.424 329.563 151.424 347.02V445.031C151.449 480.532 176.196 508.73 223.364 508.73ZM399.254 491.599C391.389 481.407 384.411 461.325 381.785 446.507C381.198 443.006 380.047 440.98 376.546 440.98C373.645 440.98 371.894 442.73 371.894 446.507V477.331C371.894 494.775 361.703 508.743 343.058 508.743C324.414 508.743 314.235 494.775 314.235 477.331V347.595C314.235 329.551 325.289 316.171 348.298 316.171H381.223C418.199 316.171 448.786 337.116 448.786 374.067C448.786 398.489 438.294 413.907 429.266 420.885C426.64 422.923 426.065 424.961 426.94 427.287C430.716 437.466 438.294 447.07 446.735 458.111C451.974 464.801 456.051 472.066 456.051 481.97C456.051 496.801 442.933 508.73 427.803 508.73C418.474 508.73 409.158 504.654 399.254 491.599ZM396.041 380.757C396.041 373.192 392.264 364.464 380.035 364.464H375.958C370.994 364.464 368.668 367.39 368.668 371.166V390.924C368.668 394.712 370.994 397.614 375.958 397.614H380.035C392.264 397.614 396.041 388.022 396.041 380.757ZM546.31 509.03C592.039 509.03 620.863 479.932 620.863 437.478C620.863 410.431 604.544 391.811 571.944 391.811H562.628C545.434 391.811 532.054 399.964 532.054 418.284C532.054 434.577 546.31 442.43 557.101 442.43C562.628 442.43 566.13 444.181 566.13 448.245C566.13 453.485 560.015 456.973 553.012 456.973C531.179 456.973 516.323 441.555 516.323 412.757C516.323 380.757 536.718 369.128 552.437 369.128C571.657 369.128 574.858 379.032 588.25 379.032C603.694 379.032 614.173 366.227 614.173 352.859C614.173 342.956 609.796 335.403 603.118 330.163C590.876 321.135 573.707 314.457 548.085 314.457C502.943 314.457 458.964 344.131 458.964 412.769C458.952 478.481 502.918 509.03 546.31 509.03ZM723.651 507.28C739.957 507.28 752.774 497.676 752.774 480.232C752.774 463.063 739.957 453.459 723.651 453.459H697.441C692.489 453.459 690.164 450.558 690.164 446.77V441.242C690.164 437.466 692.489 434.552 697.441 434.552H717.536C731.529 434.552 742.583 426.124 742.583 411.281C742.583 396.451 731.529 388.01 717.536 388.01H697.441C692.489 388.01 690.164 385.096 690.164 381.307V376.656C690.164 372.879 692.489 369.966 697.441 369.966H723.651C739.957 369.966 752.774 360.362 752.774 342.918C752.774 325.749 739.957 316.146 723.651 316.146H668.618C645.622 316.146 634.555 329.526 634.555 347.57V475.83C634.555 493.862 645.622 507.255 668.618 507.255H723.651V507.28ZM765.867 477.343V347.607C765.867 329.563 776.934 316.196 799.93 316.196H832.842C869.818 316.196 900.405 337.141 900.405 374.08C900.405 398.514 889.913 413.932 880.885 420.91C878.259 422.936 877.684 424.974 878.559 427.3C882.336 437.479 888.45 445.632 898.354 458.136C903.594 464.814 907.67 472.079 907.67 481.983C907.67 496.826 894.553 508.743 879.422 508.743C870.106 508.743 860.79 504.679 850.886 491.574C843.021 481.382 836.043 461.312 833.417 446.482C832.842 442.993 831.679 440.967 828.178 440.967C825.277 440.967 823.526 442.705 823.526 446.482V477.318C823.526 494.762 813.335 508.73 794.69 508.73C776.058 508.73 765.867 494.775 765.867 477.343ZM820.325 390.936C820.325 394.725 822.651 397.639 827.603 397.639H831.679C843.921 397.639 847.698 388.035 847.698 380.757C847.698 373.192 843.921 364.464 831.679 364.464H827.603C822.651 364.464 820.325 367.39 820.325 371.166V390.936ZM183.186 665.814C180.56 661.738 180.272 659.112 180.272 657.961C180.272 654.76 182.023 652.434 185.512 649.233C193.665 641.668 213.76 622.76 224.827 605.604C233.255 592.512 236.756 580.595 236.756 570.716C236.756 545.406 213.76 525.624 188.713 525.624C172.695 525.624 157.551 534.64 147.373 551.221C133.68 573.317 117.361 598.914 106.895 609.105C104.269 611.731 102.818 612.307 100.793 612.307C97.2912 612.307 95.8407 609.981 95.8407 606.204V577.106C95.8407 548.608 78.9469 525.624 48.3604 525.624C17.4988 525.624 0.892598 548.595 0.892598 577.106V756.286C0.892598 784.784 17.4863 807.78 48.3604 807.78C78.9469 807.78 95.8407 784.809 95.8407 756.286V714.995C95.8407 711.494 97.2912 708.893 100.793 708.893C105.444 708.893 106.62 713.545 107.77 715.87C114.473 731.864 133.98 765.889 152.037 785.959C164.279 799.339 179.41 807.78 195.428 807.78C222.513 807.78 245.234 784.209 245.234 758.912C245.234 743.206 238.519 731.564 225.714 717.609C209.396 699.839 190.176 676.568 183.186 665.814ZM315.973 525.599C283.361 525.599 265.592 550.033 265.592 580.57V752.772C265.592 783.321 283.361 807.755 315.973 807.755C348.573 807.755 366.342 783.321 366.342 752.772V580.57C366.342 550.046 348.598 525.599 315.973 525.599ZM595.228 525.599C565.229 525.599 548.923 547.995 548.923 576.218V639.042C548.923 644.269 547.172 646.607 543.971 646.607C541.645 646.607 539.895 645.156 537.856 641.092L497.391 562.55C481.96 532.577 465.942 525.599 447.598 525.599C417.011 525.599 400.13 548.583 400.13 577.381V757.148C400.13 785.371 416.436 807.767 446.422 807.767C476.421 807.767 492.727 785.371 492.727 757.148V694.325C492.727 689.098 494.465 686.759 497.679 686.759C500.005 686.759 501.755 688.21 503.781 692.287L544.259 770.816C559.69 800.79 576.283 807.767 594.052 807.767C624.626 807.767 641.52 784.796 641.52 755.998V576.218C641.52 547.995 625.227 525.599 595.228 525.599ZM833.717 637.591H819.45C793.815 637.591 774.02 649.521 774.02 675.693C774.02 699.539 795.566 710.881 811.584 710.881C819.45 710.881 824.977 713.207 824.977 719.309C824.977 726.887 815.661 731.814 805.757 731.814C772.857 731.814 750.424 709.418 750.424 667.827C750.424 621.573 781.01 604.704 804.581 604.704C833.417 604.704 838.069 619.247 858.164 619.247C881.46 619.247 897.179 600.352 897.179 581.157C897.179 566.902 890.776 555.848 880.585 548.283C862.828 535.19 836.043 525.587 798.179 525.587C730.329 525.587 664.229 568.34 664.229 667.827C664.229 762.938 730.316 807.442 795.553 807.442C863.979 807.442 907.37 765.264 907.37 703.603C907.382 664.639 882.936 637.591 833.717 637.591Z" fill="#E6E6E6"/>
</svg>
