<svg width="2284" height="560" viewBox="0 0 2284 560" fill="none" xmlns="http://www.w3.org/2000/svg">
<path fill-rule="evenodd" clip-rule="evenodd" d="M1940.2 560.002H0.516602L22.2734 502.274C43.7827 445.2 159.172 139.36 170.106 114.541C182.966 83.7379 204.088 52.4216 230.396 33.3577C266.152 8.51834 305.575 -0.339781 346.129 0.0406711L351.364 0.00170898H2283.48L2261.42 57.8832C2220.97 163.997 2122.31 422.682 2112 448.326C2096.3 488.298 2073.19 511.98 2047.39 529.763C2024.41 545.16 1990.74 560.002 1940.2 560.002ZM2252.72 21.238L2241.62 50.3632C2201.21 156.383 2102.62 414.895 2092.31 440.53C2078.39 475.951 2058.39 496.456 2035.48 512.256C2015.62 525.563 1986.12 538.84 1940.2 538.84H31.1377L42.0906 509.784C63.5426 452.849 178.583 147.857 189.481 123.105C201.383 94.491 220.38 66.7982 242.639 50.668C274.022 28.8837 308.769 20.8965 345.975 21.2587L351.409 21.2403L2252.72 21.238Z" fill="#E6E6E6"/>
<path fill-rule="evenodd" clip-rule="evenodd" d="M2150.84 47.49L2146.78 58.812C2105.73 173.088 2021.73 406.948 2012.52 431.238C2001.4 461.328 1986.17 477.811 1968.18 490.974C1953.4 501.475 1931 512.582 1893.81 512.582H132.907C157.527 443.204 259.233 157.017 269.134 133.11C279.301 107.001 294.741 83.9447 310.722 71.6533C334.737 53.9371 361.366 47.2058 392.036 47.5175L397.424 47.49H2150.84ZM1873.38 422.934C1870.69 428.453 1860.89 439.105 1848.82 435.349C1842.18 433.243 1836.46 424.641 1838.8 418.089C1843.13 403.652 1873.94 317.947 1873.94 317.947L1775.41 317.899L1719.5 479.326C1753.92 492.901 1809.57 492.836 1834.62 492.807H1834.64C1835.73 492.805 1836.76 492.804 1837.73 492.804C1860.98 492.832 1894.56 491.789 1917.24 481.84C1939.57 472.509 1968.69 454.63 1987 402.992C1989.69 395.629 1992.19 388.89 1994.48 382.693C2008.16 345.741 2014.7 328.081 2013.11 312.44C2010.86 295.244 1998.93 283.532 1987.27 274.578C1976.41 265.273 1938.33 231.188 1938.33 231.188C1938.33 231.188 1927.06 222.908 1924.82 206.748C1923.85 193.28 1934.95 166.425 1941.44 150.711C1943.09 146.74 1944.43 143.48 1945.22 141.328C1949.54 129.626 1962.04 128.258 1968.69 131.019C1982 137.964 1979.31 145.863 1974.21 160.83L1973.83 161.966L1973.58 162.686C1967.35 179.548 1949.47 226.02 1949.47 226.02L2046.54 226.059L2099.2 76.6489C2076.14 68.7099 2030.4 65.5998 1998 65.5998L1995.48 65.5979C1964.64 65.572 1928.8 65.542 1907.75 75.927C1885.39 86.2176 1859.57 105.155 1839.09 154.738C1817.86 203.248 1813.5 219.087 1815.44 232.866C1819.1 252.496 1843.02 276.265 1859.01 289.019C1862.97 292.171 1867.1 295.271 1871.17 298.33C1888 310.967 1903.88 322.886 1902.78 334.797C1898.29 375.437 1873.38 422.934 1873.38 422.934ZM505.107 467.99L444.665 467.972L585.084 93.233L691.388 93.2628L660.138 317.993L740.239 93.2834L800.681 93.2926L660.585 467.719L556.261 467.69L584.761 247.293L505.107 467.99ZM689.701 467.708L783.07 467.763L924.19 92.9946L827.17 93.2811L689.701 467.708ZM1016.67 243.686L1102.71 243.704L1155.22 102.992C1134.9 89.9694 1102.68 89.3437 1066.15 88.718C1028.98 88.0648 1001.08 87.76 975.225 101.094C946.708 116.592 936.085 133.918 931.524 146.029C927.439 156.154 869.709 310.159 848.85 365.804C844.817 376.562 842.163 383.644 841.54 385.299C841.361 385.774 841.164 386.295 840.95 386.858C836.148 399.503 823.239 433.497 835.623 451.344C844.348 463.424 887.385 470.88 899.99 471.783C923.567 473.034 954.768 473.357 978.801 467.476C993.815 463.759 1032.03 446.121 1046.42 406.437C1053.82 385.675 1084.29 303.518 1084.29 303.518H994.933C994.933 303.518 961.275 394.925 956.409 406.721C953.943 413.853 944.858 419.734 936.901 417.259C926.686 414.177 923.225 405.185 925.984 398.035C929.853 388.76 1010.07 171.757 1014.3 160.273C1017.12 152.535 1022.96 142.644 1036.81 146.664C1049.01 150.998 1047.47 162.189 1045.03 168.968C1042.25 176.731 1016.67 243.686 1016.67 243.686ZM1590.42 93.4805L1569.77 148.052L1492.04 147.427L1455.51 250.621L1516.97 250.63L1494.96 305.81L1435.17 306.082L1397.92 412.114L1474.34 411.791L1453.63 467.905L1283.92 467.878C1283.92 467.905 1283.92 467.919 1283.92 467.919L1199.82 467.947L1190.33 301.458L1134.53 467.826L1041.97 467.615L1172.02 94.4624L1264.91 94.6618L1206.82 248.944L1333.54 94.3845L1414.87 94.4235L1250.49 281.817C1286.27 285.037 1283.98 463.381 1283.92 467.835L1420.36 93.4507L1590.42 93.4805ZM1700.97 199.881C1698.51 208.615 1691.83 225.335 1688.4 231.557C1684.94 238.68 1680.13 247.064 1666.17 247.376C1655.15 247.337 1650.19 247.062 1650.19 247.062L1688.11 144.635C1688.11 144.635 1696.41 144.312 1697.74 144.635C1707.06 144.303 1711.9 151.169 1712.73 160.474C1713.13 166.238 1709.57 177.055 1706.5 186.398L1706.5 186.415C1705.76 188.643 1705.06 190.787 1704.44 192.758C1703.07 195.02 1701.91 197.405 1700.97 199.881ZM1801.25 104.66L1801.13 104.515C1795.64 98.0389 1791.24 92.8411 1755.27 92.5317C1731.64 92.5133 1618.58 92.4836 1618.58 92.4836L1482.31 467.685H1574.09C1574.09 467.685 1620.2 335.496 1631.47 304.191C1631.47 304.191 1636.48 301.661 1640.77 302.874C1648.09 304.771 1651.63 310.063 1651.46 319.983C1650.99 328.742 1649.3 333.398 1645.54 343.745L1645.54 343.747L1645.53 343.775C1645.03 345.15 1644.5 346.626 1643.92 348.225C1638.27 362.472 1620.69 414.926 1617.16 425.462C1616.32 427.832 1615.4 430.148 1614.46 432.476C1611.47 439.931 1608.43 447.517 1608.23 457.461C1608.27 469.867 1613.35 467.988 1613.35 467.988L1705.5 467.706C1705.5 467.706 1702.63 460.876 1702.81 449.107C1703.05 437.592 1712.53 411.804 1719.03 394.124L1719.06 394.046C1719.73 392.227 1720.37 390.495 1720.96 388.874C1727.96 370.922 1738.51 339.567 1740.46 325.9C1742.72 313.487 1743.48 306.951 1740.6 301.375C1737.42 293.922 1732.3 283.709 1720.11 278.415C1720.11 278.415 1734.82 273.464 1741.88 268.78C1748.28 265.365 1765.93 248.011 1769.72 239.948C1778.73 221.938 1786.02 205.521 1790.54 194.339C1797.19 178.823 1808.16 144.672 1809.33 135.378C1810.17 125.725 1807.46 111.158 1801.25 104.66ZM336.291 422.524C333.598 428.074 323.812 438.723 311.709 434.968C305.078 432.853 299.381 424.252 301.693 417.708C306.027 403.253 336.832 317.56 336.832 317.56L238.341 317.53L182.442 478.984C216.82 492.487 272.436 492.443 297.477 492.423C298.584 492.422 299.631 492.421 300.614 492.421C323.888 492.412 357.48 491.417 380.174 481.42C402.472 472.108 431.624 454.248 449.93 402.625C452.656 395.157 455.182 388.331 457.502 382.061L457.506 382.049C471.117 345.261 477.636 327.644 476.048 312.064C473.802 294.831 461.831 283.129 450.186 274.186C439.307 264.863 401.248 230.796 401.248 230.796C401.248 230.796 389.942 222.507 387.687 206.365C386.735 192.905 397.822 166.097 404.322 150.38C405.974 146.385 407.33 143.106 408.117 140.945C412.432 129.222 424.987 127.847 431.551 130.627C444.947 137.58 442.24 145.481 437.1 160.482L437.088 160.517C436.89 161.096 436.688 161.685 436.483 162.285C430.252 179.146 412.384 225.637 412.384 225.637L509.443 225.656L562.108 76.2456C539.033 68.3363 493.349 65.2171 460.896 65.1873C459.905 65.1875 458.909 65.1875 457.907 65.1874H457.904C427.182 65.1853 391.567 65.1828 370.656 75.5053C348.322 85.8325 322.506 104.763 301.994 154.337C280.759 202.877 276.416 218.695 278.341 232.485C282.04 252.127 305.922 275.845 321.91 288.611C325.875 291.771 330.01 294.876 334.087 297.938L334.087 297.938C350.926 310.587 366.783 322.498 365.669 334.41C361.206 375.038 336.291 422.524 336.291 422.524Z" fill="#E6E6E6"/>
</svg>
