<svg width="763" height="1000" viewBox="0 0 763 1000" fill="none" xmlns="http://www.w3.org/2000/svg">
<path d="M703.599 262.204C716.154 329.496 692.081 397.586 641.937 453.391C591.786 509.203 515.816 552.342 425.814 569.134C335.812 585.925 249.398 573.082 182.495 539.109C115.602 505.141 68.5959 450.312 56.0411 383.02C43.4863 315.728 67.5591 247.637 117.703 191.833C167.854 136.021 243.824 92.8818 333.826 76.09C423.828 59.2983 510.242 72.1411 577.145 106.114C644.038 140.083 691.044 194.912 703.599 262.204Z" stroke="#E6E6E6" stroke-width="16"/>
<path d="M320.719 173.012C323.512 194.574 313.766 212.659 298.454 213.362C283.141 214.066 267.849 195.96 265.056 174.398C262.263 152.133 272.712 134.75 288.005 134.047C303.317 133.364 317.926 150.766 320.719 173.012Z" fill="#E6E6E6"/>
<path d="M553.079 150.063C554.466 169.535 545.423 184.144 532.2 182.758C518.978 181.371 506.459 164.672 504.369 145.18C502.982 125.708 512.709 111.782 526.634 113.169C539.173 114.575 550.989 130.59 553.079 150.063Z" fill="#E6E6E6"/>
<path d="M649.758 207.798C646.965 205.708 644.192 208.501 645.578 211.274C652.531 225.883 651.848 247.446 630.266 247.446C605.911 247.446 573.216 216.137 528.685 216.137C497.377 216.137 462.593 237.7 459.819 285.707C438.941 253.695 402.769 232.133 358.239 232.133C277.537 232.133 220.486 330.237 152.323 330.237C123.105 330.237 114.062 303.792 121.015 284.32C121.718 280.843 118.222 278.754 116.152 280.843C93.203 298.929 84.8438 330.237 84.8438 360.842C84.8438 442.931 168.319 512.5 279.626 512.5C385.367 512.5 475.112 448.497 479.272 355.96C500.834 387.268 537.709 405.353 573.88 405.353C633.704 405.353 689.367 362.913 689.367 291.957C688.722 258.598 671.34 220.337 649.758 207.798Z" fill="#E6E6E6"/>
<path d="M270.623 1.88326C226.795 0.496562 188.534 41.5311 185.741 93.0147C185.741 95.8076 185.741 98.581 185.741 101.354C185.741 103.444 187.128 104.831 189.218 104.831C189.218 104.831 189.218 104.831 189.921 104.831C191.308 104.831 193.397 103.444 193.397 102.058C203.143 60.3199 242.088 31.1016 285.935 32.4883C295.681 33.1914 306.111 34.5781 315.154 38.7577C317.947 40.1444 320.72 38.7577 322.81 35.9648C324.9 33.1718 324.9 29.0118 322.107 26.9219C307.497 11.6097 289.412 2.56684 270.623 1.88326Z" fill="#E6E6E6"/>
<path d="M574.641 63.7952C573.938 61.0023 573.254 58.932 572.551 56.8422C564.895 33.8934 550.286 15.7882 532.2 6.06175C518.978 -0.891273 505.072 -1.59439 492.552 2.58524C479.33 6.76486 468.9 17.1944 461.947 31.1004C460.56 33.8934 461.244 37.3699 464.037 39.4401C466.127 41.53 469.603 41.53 472.396 39.4401C477.963 35.2605 483.529 32.4871 489.779 30.3973C520.384 19.9678 553.098 34.5769 568.391 65.1819C569.094 66.5686 570.481 67.2717 571.868 67.2717C572.571 67.2717 572.571 67.2717 573.254 67.2717C574.641 67.9749 575.344 65.885 574.641 63.7952Z" fill="#E6E6E6"/>
<path d="M749.165 780.186V772.2H753.212C753.536 772.2 753.89 772.294 754.272 772.482C754.655 772.662 754.979 772.943 755.246 773.326C755.52 773.701 755.657 774.177 755.657 774.754C755.657 775.338 755.517 775.836 755.235 776.247C754.954 776.651 754.611 776.958 754.207 777.167C753.81 777.376 753.435 777.481 753.082 777.481H750.16V776.182H752.541C752.779 776.182 753.035 776.063 753.309 775.825C753.59 775.587 753.731 775.23 753.731 774.754C753.731 774.263 753.59 773.932 753.309 773.758C753.035 773.585 752.793 773.499 752.584 773.499H750.918V780.186H749.165ZM753.991 776.42L755.982 780.186H754.056L752.108 776.42H753.991ZM752.195 784.947C750.997 784.947 749.875 784.724 748.829 784.276C747.783 783.829 746.863 783.209 746.07 782.415C745.276 781.622 744.656 780.702 744.209 779.656C743.761 778.61 743.538 777.488 743.538 776.291C743.538 775.093 743.761 773.971 744.209 772.925C744.656 771.879 745.276 770.959 746.07 770.166C746.863 769.372 747.783 768.752 748.829 768.305C749.875 767.857 750.997 767.634 752.195 767.634C753.392 767.634 754.514 767.857 755.56 768.305C756.606 768.752 757.526 769.372 758.319 770.166C759.113 770.959 759.733 771.879 760.18 772.925C760.628 773.971 760.851 775.093 760.851 776.291C760.851 777.488 760.628 778.61 760.18 779.656C759.733 780.702 759.113 781.622 758.319 782.415C757.526 783.209 756.606 783.829 755.56 784.276C754.514 784.724 753.392 784.947 752.195 784.947ZM752.195 782.87C753.407 782.87 754.51 782.574 755.506 781.982C756.501 781.391 757.295 780.597 757.886 779.602C758.478 778.606 758.774 777.502 758.774 776.291C758.774 775.079 758.478 773.975 757.886 772.979C757.295 771.984 756.501 771.19 755.506 770.599C754.51 770.007 753.407 769.711 752.195 769.711C750.983 769.711 749.879 770.007 748.883 770.599C747.888 771.19 747.094 771.984 746.503 772.979C745.911 773.975 745.615 775.079 745.615 776.291C745.615 777.502 745.911 778.606 746.503 779.602C747.094 780.597 747.888 781.391 748.883 781.982C749.879 782.574 750.983 782.87 752.195 782.87Z" fill="#E6E6E6"/>
<path fill-rule="evenodd" clip-rule="evenodd" d="M729.776 649.568L727.686 647.479C720.733 641.912 718.643 642.615 717.315 648.904C717.579 649.689 717.867 650.571 718.193 651.57L718.196 651.579C719.606 655.9 721.727 662.394 725.674 672.556C726.566 675.122 727.511 677.758 728.476 680.448C733.533 694.55 739.119 710.129 740.283 724.743C742.373 744.919 738.194 760.231 728.448 771.363C724.287 776.227 718.721 779.703 711.065 781.793C686.71 788.062 665.831 772.75 658.878 767.184C644.269 778.317 632.453 782.496 620.617 782.496C606.711 782.496 592.102 776.93 583.059 768.571C580.631 770.395 578.322 772.396 576.026 774.383L576.026 774.383L576.026 774.384L576.025 774.384L576.025 774.384L576.025 774.384L576.025 774.384L576.025 774.385C570.434 779.226 564.929 783.993 558.02 785.973C539.943 792.01 530.226 783.947 527.487 781.675C527.063 781.323 526.806 781.109 526.712 781.109C526.657 782.301 526.611 783.588 526.562 784.958C525.979 801.205 524.98 829.064 504.447 845.112C503.06 846.499 500.97 847.905 498.88 849.292C487.748 855.542 473.139 858.335 454.35 856.245C413.315 851.382 400.776 821.46 399.389 813.804C396.616 814.507 394.526 814.507 392.437 814.507H392.436C388.257 814.507 383.394 813.804 379.214 811.714V813.101C379.214 818.667 376.421 820.054 367.378 824.234C352.066 830.503 336.07 838.159 320.758 846.499C314.488 852.768 303.356 859.721 290.836 861.811C281.793 863.218 273.454 861.811 267.184 856.948C265.094 855.561 263.005 853.472 261.618 851.382C261.281 856.176 261.11 860.804 260.939 865.432L260.939 865.434C260.763 870.194 260.588 874.955 260.231 879.897C240.056 891.733 220.583 904.955 200.408 919.564C196.357 916.179 191.621 912.794 186.886 909.409L186.502 909.135C186.858 908.044 187.412 894.075 188.057 877.8C188.647 862.885 189.315 846.033 189.978 835.386C178.846 850.698 164.236 864.604 152.401 875.737C152.401 877.748 152.238 879.758 152.069 881.845C151.887 884.096 151.697 886.436 151.697 888.959C150.788 900.658 150.181 914.399 149.675 925.843L149.675 925.844C149.399 932.093 149.153 937.657 148.905 941.83V954.349V963.392C148.905 963.392 130.819 978.685 121.073 986.341C106.464 997.473 93.9443 1004.43 80.7219 996.77C64.6946 987.784 65.8027 971.11 66.6241 958.752C66.6936 957.706 66.761 956.692 66.8158 955.716C68.1861 924.25 70.1527 873.637 71.9336 827.803L71.9336 827.803C72.8686 803.738 73.7525 780.991 74.472 763.024C75.1751 747.712 74.472 729.626 72.3821 726.149C69.5892 721.989 68.9056 719.899 72.3821 715.72C76.5618 710.153 84.1984 701.814 93.9443 692.771C163.514 630.155 214.997 653.807 220.564 698.337C222.84 696.444 226.355 694.551 229.87 692.658L229.871 692.658C232.811 691.075 235.751 689.491 237.966 687.908C242.145 685.115 244.919 684.431 247.712 685.818C249.802 683.045 256.052 676.092 262.321 673.299C261.618 673.299 260.934 672.595 260.231 671.209C258.145 668.087 255.678 663.027 253.114 657.768L253.113 657.765L253.11 657.759C252.243 655.979 251.364 654.177 250.485 652.42C249.652 650.472 248.706 648.528 247.783 646.628C246.391 643.766 245.049 641.007 244.216 638.494C244.216 637.671 243.975 637.095 243.775 636.618C243.633 636.281 243.513 635.993 243.513 635.701C242.829 632.225 242.829 630.155 244.216 627.362C244.216 625.975 245.602 624.589 246.306 623.885L246.306 623.885C249.006 621.639 252.58 621.423 256.646 621.177C258.873 621.043 261.248 620.899 263.708 620.409C271.344 619.022 278.297 615.546 286.657 609.276C287.697 608.586 288.736 607.891 289.776 607.196L289.778 607.195L289.78 607.194L289.781 607.193L289.783 607.192L289.785 607.191L289.791 607.186C290.836 606.488 291.881 605.79 292.926 605.096C303.375 598.143 315.191 596.737 320.758 603.007V596.737C320.758 584.218 319.371 569.609 318.668 562.656C318.355 560.423 318.186 558.193 318.026 556.099L318.026 556.097V556.097L318.026 556.096C317.837 553.613 317.663 551.319 317.281 549.433L316.578 545.254C315.895 538.281 318.668 534.121 320.758 531.328C326.324 525.059 333.277 525.059 336.07 525.059H336.07C338.16 525.059 340.933 525.059 345.113 525.762C352.749 527.148 400.073 537.578 408.413 539.668C415.366 541.758 422.319 543.144 424.409 543.144C425.112 543.144 427.885 541.738 429.975 540.351C430.487 540.092 430.999 539.739 431.546 539.362L431.546 539.362L431.546 539.362C432.481 538.718 433.52 538.002 434.838 537.558C446.613 531.664 467.882 517.93 483.08 508.117L483.081 508.116C487.621 505.184 491.62 502.602 494.662 500.684C497.435 498.594 501.615 496.504 506.478 496.504C514.134 496.504 522.474 502.754 522.474 513.887V516.68V529.902C526.43 527.524 530.159 525.601 532.768 524.256L532.769 524.255C534.744 523.237 536.077 522.549 536.38 522.246C553.782 512.5 569.778 517.363 580.91 525.723C581.849 526.648 582.779 527.582 583.706 528.514C584.168 528.978 584.629 529.441 585.09 529.902C587.18 531.992 587.883 534.766 587.883 537.558C587.566 542.884 587.253 551.32 586.941 559.747L586.94 559.752L586.94 559.756C586.56 570.023 586.179 580.272 585.793 584.862C609.445 564.687 644.23 567.46 658.839 589.726C667.179 575.8 688.741 559.121 724.229 578.593C733.272 583.456 743.701 592.499 747.178 596.679C747.438 596.939 747.675 597.151 747.882 597.337C748.779 598.139 749.135 598.458 748.565 600.155C748.565 601.344 743.958 617.371 741.769 624.988L741.456 626.078C741.232 626.855 741.046 627.503 740.908 627.987C739.502 634.256 735.342 647.479 734.639 648.865C733.252 651.658 731.865 651.658 729.776 649.568ZM400.034 614.081C406.987 614.784 413.94 616.874 420.21 625.213C425.756 609.218 443.862 593.222 461.244 586.249C457.129 584.886 453.006 583.811 449.281 582.839C447.348 582.336 445.523 581.86 443.862 581.386C438.979 579.999 436.205 579.999 435.502 579.999C435.37 580.064 435.213 580.136 435.026 580.221C433.246 581.032 428.746 583.081 417.417 592.519C413.737 595.382 408.846 599.693 403.6 604.318C399.935 607.549 396.097 610.932 392.378 614.081H400.034ZM317.929 794.253L319.316 792.866C320.019 792.163 320.019 792.163 321.406 792.182C321.406 792.359 321.361 792.928 321.295 793.782C321.097 796.331 320.703 801.411 320.703 806.108C319.999 810.971 311.64 826.283 299.824 833.236C293.554 836.713 287.305 837.396 283.125 834.623C279.648 831.85 277.559 825.58 278.262 817.924C279.273 801.097 280.608 770.106 281.797 742.512L281.797 742.507C283.066 713.062 284.168 687.488 284.531 687.125C291.484 682.262 313.749 669.743 313.749 669.743C313.749 669.743 308.886 775.483 308.183 790.092C308.183 790.62 308.158 791.223 308.131 791.859C308.017 794.566 307.878 797.863 309.57 798.432C310.273 799.135 311.66 799.135 312.363 798.432C313.749 797.729 316.542 795.639 317.929 794.253ZM320.016 625.916C319.313 621.737 317.926 618.963 315.836 617.576C313.043 616.19 308.883 616.873 303.317 619.666C299.84 621.756 295.661 624.53 291.481 628.026C274.782 640.545 264.353 637.068 264.353 637.068C267.062 639.322 268.893 642.453 270.792 645.702C271.824 647.465 272.875 649.263 274.099 650.974C277.575 657.244 284.528 665.584 297.047 662.81C311.676 659.998 321.403 639.119 320.016 625.916ZM256.698 704.507C256.698 704.507 257.401 704.507 257.401 703.804C265.057 694.761 272.713 693.374 272.693 694.058C272.29 697.344 271.641 704.754 271.033 711.705C270.611 716.528 270.208 721.131 269.92 723.979C269.217 728.139 269.217 730.932 269.217 730.932C260.174 737.182 242.772 760.834 241.385 792.845C240.692 805.359 239.994 817.879 239.296 830.398C238.598 842.927 237.899 855.456 237.206 867.981C228.765 873.833 219.729 880.28 210.637 886.767L208.69 888.156C209.72 867.932 210.75 847.873 211.78 827.814L211.781 827.803L211.786 827.702C212.844 807.1 213.902 786.499 214.96 765.717C214.96 762.304 215.235 757.37 215.541 751.902L215.541 751.899L215.541 751.896L215.541 751.895V751.895V751.894L215.541 751.894C215.921 745.098 216.347 737.479 216.347 730.932C220.868 727.456 225.565 724.15 230.262 720.844C234.96 717.539 239.657 714.233 244.178 710.757C243.827 717.016 243.304 723.105 242.782 729.194C242.259 735.283 241.737 741.371 241.385 747.631C245.565 725.385 249.041 714.253 256.698 704.507ZM423.687 749.04C423.185 749.294 422.318 749.82 421.382 750.387C419.731 751.387 417.866 752.516 417.418 752.516C416.031 753.219 414.625 753.219 413.238 752.516C411.553 751.398 411.684 748.463 411.798 745.914C411.825 745.303 411.851 744.713 411.851 744.177V740.7C412.021 736.671 412.19 732.237 412.358 727.818V727.818L412.358 727.811V727.809C412.886 713.918 413.408 700.179 413.941 699.646C414.271 696.052 414.446 692.613 414.61 689.399C414.795 685.767 414.965 682.424 415.328 679.471V668.338V668.338C415.328 666.248 415.328 664.861 414.625 662.772C412.535 647.459 406.266 636.327 395.836 636.327C394.222 636.327 392.2 636.746 389.761 637.252C389.042 637.401 388.287 637.558 387.496 637.713C378.453 641.19 370.797 655.799 365.934 669.725C365.934 670.15 365.169 672.099 364.408 674.035L364.407 674.038C363.912 675.3 363.419 676.556 363.141 677.381C362.438 679.471 362.438 678.767 362.438 677.381C363.141 667.635 363.825 649.549 363.825 645.37C363.825 644.666 363.825 644.666 363.122 644.666C361.588 645.684 359.307 646.712 357.654 647.458C357.054 647.728 356.538 647.961 356.169 648.143C347.126 653.006 332.517 660.662 332.517 660.662C335.309 663.455 335.309 670.408 334.606 676.658L334.51 677.986L334.395 679.58C333.772 688.171 333.22 695.797 333.22 698.923C331.833 730.231 326.95 814.41 326.95 814.41C331.823 811.978 336.691 809.542 341.559 807.105C346.427 804.669 351.296 802.232 356.169 799.801C356.542 791.932 356.917 784.064 357.292 776.182L357.293 776.171L357.293 776.167L357.294 776.155C358.312 754.777 359.335 733.297 360.348 711.443C361.051 697.517 371.481 687.088 378.434 684.314C379.821 683.611 382.614 683.611 384 687.791C383.59 700.379 382.946 713.679 382.342 726.172V726.173V726.174C381.911 735.08 381.5 743.575 381.207 751.11C380.504 755.973 380.504 760.153 380.504 764.332V766.422C379.801 774.078 381.891 781.031 385.367 783.805C389.547 787.984 395.797 787.984 402.066 785.895C413.902 781.031 422.945 767.106 422.945 762.926C422.967 760.24 423.193 757.115 423.39 754.391V754.391V754.39V754.39C423.548 752.203 423.687 750.275 423.687 749.04ZM716.555 698.941C717.961 702.417 718.645 705.21 719.348 708.687C721.418 718.413 722.121 737.202 713.762 748.276C707.493 755.249 695.677 759.409 680.364 754.545C671.321 751.772 660.189 744.116 652.533 737.163C651.966 737.616 651.399 738.072 650.832 738.527C640.959 746.459 630.917 754.527 617.748 753.862C614.271 753.862 610.092 753.862 606.615 752.475C598.256 749.702 589.916 741.362 585.737 735.093C585.737 735.093 585.034 735.093 585.034 734.39C585.034 734.39 579.467 742.729 569.721 750.385C565.542 753.178 561.382 755.952 557.202 758.042C550.249 760.834 542.593 760.834 536.323 756.655C525.928 749.146 527.046 730.594 527.725 719.339L527.725 719.338C527.863 717.039 527.983 715.045 527.983 713.511C530.021 663.326 532.707 613.809 535.428 563.658L535.64 559.763C537.026 538.904 548.843 534.021 564.155 538.201C564.506 538.201 564.853 538.377 565.2 538.553C565.546 538.728 565.893 538.904 566.245 538.904C566.245 538.904 557.905 697.535 557.202 706.577C556.499 713.53 556.499 719.097 556.499 721.187C556.499 723.276 556.499 725.366 557.202 726.753C559.995 734.409 569.038 726.753 578.08 718.413C577.726 716.967 577.556 715.337 577.376 713.619L577.376 713.618C577.208 712.019 577.033 710.343 576.694 708.667C568.354 667.613 579.487 609.86 606.615 595.954C613.568 592.478 619.838 591.071 625.404 591.775C634.447 591.775 642.806 595.954 647.669 603.61C660.892 623.786 653.939 666.91 651.146 678.746C635.834 682.925 622.611 686.402 604.525 688.492C604.525 695.464 604.525 706.577 608.002 714.937C619.838 744.155 646.263 713.53 650.443 708.667C650.443 709.37 666.439 728.843 677.571 732.319C685.227 734.409 690.794 732.319 692.884 726.753C694.973 722.573 694.973 717.007 694.27 711.441C693.005 701.668 686.798 688.258 680.891 675.495C677.128 667.367 673.487 659.501 671.321 653.004C664.368 631.442 666.439 614.059 678.274 602.224C683.841 596.657 691.497 593.181 700.54 593.181C713.079 593.181 722.122 600.837 726.985 606.403C726.985 606.403 721.418 623.102 720.715 624.489C720.032 623.805 709.602 614.743 701.243 621.012C699.153 622.399 697.083 625.192 696.38 628.668C692.93 640.03 700.321 658.036 707.893 676.48C710.994 684.036 714.126 691.665 716.555 698.941ZM628.197 631.481C626.81 616.169 616.381 617.575 610.111 634.957C605.932 646.09 603.158 660.699 603.158 670.426C614.994 670.426 626.81 665.562 626.81 665.562V664.176C628.9 650.953 628.9 639.84 628.197 631.481ZM512.728 600.174C493.939 595.994 487.689 607.83 485.599 612.009C480.033 605.74 466.811 604.353 454.291 614.802C450.112 618.279 446.635 622.458 443.158 627.322C433.413 642.634 427.846 666.286 427.163 689.938C425.776 740.718 438.979 767.866 454.291 770.64C470.99 773.433 477.943 763.687 481.42 756.734V757.437C481.42 776.909 480.717 790.835 475.853 798.491C470.99 806.147 459.857 808.237 449.408 803.354C443.139 799.878 437.573 794.995 434.799 790.835C434.799 790.835 428.53 797.104 425.756 800.581C422.983 804.76 422.28 807.534 425.756 812.417C437.592 829.115 460.541 834.682 478.627 829.799C506.257 822.318 506.738 791.028 507.263 756.811V756.81C507.373 749.668 507.484 742.399 507.845 735.191C509.232 697.614 512.025 641.97 513.411 620.408C514.115 609.275 514.798 601.619 514.798 601.619C514.115 600.174 513.431 600.174 512.728 600.174ZM480.033 721.891L479.977 722.275C479.293 727.011 478.609 731.746 477.24 735.797C466.811 760.152 455.678 737.886 456.361 691.266C457.065 664.138 464.018 643.259 470.267 637.009C474.447 632.829 482.787 628.65 484.174 642.575C484.197 650.825 482.743 674.637 481.553 694.151L481.552 694.155C480.73 707.628 480.033 719.051 480.033 721.891ZM187.166 682.927C198.983 689.88 205.252 705.895 205.252 727.457C205.252 787.984 169.764 838.081 130.097 863.784C129.672 870.826 129.18 878.522 128.683 886.311C127.559 903.922 126.405 922.003 125.917 934.056V953.528C125.917 953.528 120.37 958.411 114.101 963.274C96.0152 977.883 91.8356 980.657 92.5387 964.661C93.789 942.622 96.0322 891.925 98.2307 842.236C99.7068 808.876 101.163 775.97 102.285 752.496C103.379 730.539 101.008 725.479 100.304 723.976C100.116 723.574 100.046 723.426 100.195 723.278C109.238 713.532 121.777 700.309 135.683 691.267C146.815 683.63 169.081 672.497 187.166 682.927ZM131.503 832.514C139.159 826.245 148.202 816.499 155.155 799.117C169.764 763.648 172.538 712.165 155.155 711.462C149.608 712.145 141.952 717.028 135.683 723.981C135.366 731.194 134.628 751.001 133.848 771.916C132.899 797.383 131.889 824.493 131.503 832.514Z" fill="#E6E6E6"/>
</svg>
