<svg width="1060" height="1000" viewBox="0 0 1060 1000" fill="none" xmlns="http://www.w3.org/2000/svg">
<path d="M962.934 263.713C861.636 220.175 737.428 227.453 737.428 227.453C737.428 227.453 634.285 225.307 492.971 253.113C468.016 259.923 443.328 265.491 419.211 269.717C382.717 276.157 347.498 279.545 314.794 279.545C240.028 279.545 169.354 261.868 106.764 230.506C195.047 91.875 349.443 0.00231934 525.172 0.00231934C633.246 0.00231934 733.202 34.7523 814.71 93.7199C876.093 138.13 926.977 196.293 962.934 263.713Z" fill="#E6E6E6"/>
<path d="M945.356 766.647C942.036 771.947 938.614 777.146 935.126 782.311C845.635 913.764 695.398 1000 525.17 1000C339.446 1000 177.637 897.395 92.4394 745.482C94.2842 746.186 154.426 769.196 274.374 769.196C274.374 769.196 355.01 771.443 447.553 758.228C470.328 755.008 493.808 750.815 516.986 745.448C516.986 745.448 619.995 721.566 723.037 721.566C723.037 721.566 827.153 716.098 945.356 766.647Z" fill="#E6E6E6"/>
<path d="M231.171 431.861C225.401 406.403 207.154 374.269 151.944 374.269H0.734314V619.095H68.3223V545.402H164.421C182.601 544.228 220.974 535.977 230.97 487.81C232.512 480.33 233.385 471.877 233.385 462.318C233.385 462.318 234.961 448.532 231.171 431.861ZM144.464 487.81H68.3223V431.861H144.464C157.78 431.861 168.581 442.662 168.581 455.978V463.727C168.581 477.009 157.78 487.81 144.464 487.81Z" fill="#E6E6E6"/>
<path d="M1059.27 374.269H991.678V619.095H1059.27V374.269Z" fill="#E6E6E6"/>
<path d="M717.503 456.247C717.503 367.091 629.991 374.269 629.991 374.269H552.675H485.121V619.095H552.675V545.403H637.169C726.895 545.403 717.503 456.247 717.503 456.247ZM653.806 462.888C653.806 476.641 642.636 487.81 628.884 487.81H552.709V431.862H632.238C645.991 431.862 653.806 443.031 653.806 456.784V462.888Z" fill="#E6E6E6"/>
<path d="M154.728 545.401C154.728 545.401 158.519 545.77 164.422 545.401Z" fill="#E6E6E6"/>
<path d="M746.852 501.093C729.108 483.919 730.416 453.463 730.416 453.463C730.416 361.221 852.276 368.902 852.276 368.902C852.276 368.902 967.494 365.581 967.494 450.88H900.644C900.644 450.88 903.596 416.532 841.945 416.532C841.945 416.532 798.004 416.331 798.004 441.287C798.004 441.287 799.111 447.391 802.801 451.249C812.897 461.848 870.69 462.888 870.69 462.888C977.724 468.422 973.397 529.906 973.397 529.906C973.397 529.906 977.456 624.059 849.693 624.059C736.689 624.059 730.416 539.868 730.416 539.868H797.266C797.266 539.868 798.004 574.953 857.072 574.953C857.072 574.953 901.751 576.161 901.751 548.723C901.751 531.717 876.728 527.524 865.793 526.518C863.244 526.283 860.728 526.216 858.179 526.25C843.722 526.484 772.814 526.25 746.852 501.093Z" fill="#E6E6E6"/>
<path d="M317.576 431.593V467.55H438.061V525.143H317.576V561.201H468.249V618.827H252.303V374H468.249V431.593H317.576Z" fill="#E6E6E6"/>
</svg>
